# xmcd
#
# Track frame offsets: 
#        150
#        15397
#        40200
#        63857
#
# Disc length: 1196 seconds
#
# Revision: 0
# Processed by: cddbd v1.5.2PL0 Copyright (c) Steve Scherf et al.
# Submitted via: ExactAudioCopy v0.95b4
#
DISCID=2504aa04
DTITLE=Safeway - I´m in love
DYEAR=1900
DGENRE=
TTITLE0=Radio Cut
TTITLE1="M" Molella Remix
TTITLE2=Extended Love
TTITLE3=Marokko Remix
EXTD=
EXTT0=
EXTT1=
EXTT2=
EXTT3=
PLAYORDER=
